<svg width="195" height="244" viewBox="0 0 195 244" fill="none" xmlns="http://www.w3.org/2000/svg">
<path fill-rule="evenodd" clip-rule="evenodd" d="M193.355 18.038C180.809 8.22842 165.759 2.14095 149.921 0.469449C134.083 -1.20205 118.094 1.60965 103.776 8.58409C89.4585 15.5585 77.3883 26.4151 68.9412 39.9164C68.7959 40.1487 68.6517 40.3816 68.5088 40.6151C62.5143 41.8006 56.6346 43.635 50.9767 46.1064C35.3171 52.9464 22.0826 64.3475 13.0002 78.8223C3.9177 93.2971 -0.591075 110.173 0.062118 127.249C0.715311 144.325 6.50014 160.807 16.6618 174.546C26.8235 188.285 40.8903 198.641 57.0267 204.265C59.097 204.987 61.189 205.626 63.298 206.183C63.307 206.196 63.3161 206.21 63.3251 206.223C72.665 220.202 85.9402 231.096 101.472 237.53C117.004 243.963 134.094 245.646 150.583 242.367C167.071 239.087 182.217 230.992 194.104 219.104L186.388 211.388C176.027 221.749 162.825 228.806 148.454 231.664C134.082 234.523 119.186 233.056 105.648 227.448C95.5037 223.246 86.464 216.861 79.1442 208.798C88.5045 209.444 97.9595 208.54 107.119 206.072C123.619 201.625 138.395 192.308 149.52 179.337L140.531 171.628C130.956 182.792 118.239 190.81 104.038 194.638C92.7274 197.686 80.8944 197.963 69.5292 195.504C63.2407 184.397 59.9122 171.825 59.9122 159C59.9122 147.908 62.4022 137.004 67.1437 127.074C67.7038 128.057 68.2842 129.031 68.8847 129.993C77.3148 143.505 89.3715 154.377 103.68 161.369C117.989 168.362 133.975 171.193 149.815 169.542C165.655 167.89 180.713 161.821 193.271 152.028L186.494 143.337C175.564 151.862 162.459 157.143 148.672 158.581C134.886 160.018 120.973 157.554 108.519 151.468C96.0651 145.382 85.5716 135.92 78.2344 124.16C76.5642 121.483 75.0728 118.711 73.7655 115.863C81.8115 104.628 92.851 95.8525 105.648 90.5518C119.186 84.9443 134.082 83.4771 148.454 86.3358C162.825 89.1945 176.027 96.2507 186.388 106.612L194.104 98.8959C182.217 87.0085 167.071 78.913 150.583 75.6332C134.094 72.3535 117.004 74.0368 101.472 80.4702C89.066 85.6089 78.0998 93.5938 69.4287 103.723C67.8334 97.6247 67.0163 91.3183 67.0203 84.9536C67.0276 73.3059 69.7845 61.8568 75.0272 51.5248C82.8173 50.4529 90.7729 50.6378 98.586 52.1144C113.038 54.8457 126.331 61.8695 136.731 72.2694L145.104 63.8959C133.021 51.8127 117.576 43.652 100.785 40.4786C94.9079 39.3678 88.9613 38.8861 83.0425 39.0225C89.898 30.3807 98.6229 23.3526 108.602 18.4914C121.064 12.4212 134.98 9.97406 148.764 11.4289C162.549 12.8836 175.648 18.1819 186.568 26.7196L193.355 18.038ZM61.5881 54.6891C63.4487 49.8143 65.7618 45.1016 68.5088 40.6151C73.2982 39.6679 78.1609 39.135 83.0425 39.0225C81.3374 41.1719 79.748 43.421 78.2836 45.7615C77.1096 47.6381 76.0235 49.5613 75.0272 51.5248C70.4703 52.1518 65.9701 53.2089 61.5881 54.6891ZM61.3953 114.801C57.8371 105.296 55.9936 95.187 56 84.9467C56.0065 74.5588 57.9165 64.3085 61.5881 54.6891C59.6048 55.359 57.6458 56.1156 55.7167 56.9582C42.2387 62.8453 30.848 72.6581 23.0309 85.1163C15.2138 97.5745 11.3331 112.1 11.8953 126.796C12.4575 141.493 17.4364 155.68 26.1824 167.504C33.6982 177.665 43.696 185.677 55.1733 190.802C57.3378 196.167 60.0549 201.323 63.298 206.183C68.5011 207.557 73.8073 208.43 79.1442 208.798C76.6953 206.101 74.439 203.215 72.3983 200.161C71.3824 198.641 70.4257 197.087 69.5292 195.504C66.6246 194.875 63.7507 194.068 60.9238 193.083C58.9703 192.402 57.052 191.641 55.1733 190.802C51.1159 180.745 49 169.952 49 159C49 143.386 53.3001 128.098 61.3953 114.801ZM61.3953 114.801C62.9767 119.025 64.8968 123.13 67.1437 127.074C68.6658 123.887 70.42 120.8 72.3983 117.839C72.8438 117.172 73.2996 116.513 73.7655 115.863C71.9669 111.945 70.5168 107.882 69.4287 103.723C67.2439 106.275 65.2048 108.963 63.3251 111.777C62.6596 112.772 62.0163 113.781 61.3953 114.801Z" fill="#f1fc00"/>
</svg>
